<svg xmlns="http://www.w3.org/2000/svg" version="1.1" viewBox="1 1 13 13" preserveAspectRatio="xMidYMid meet"><rect width="1" height="1" x="6" y="1" shape-rendering="crispEdges" fill="rgb(0, 0, 0)"></rect><rect width="1" height="1" x="7" y="1" shape-rendering="crispEdges" fill="rgb(0, 0, 0)"></rect><rect width="1" height="1" x="8" y="1" shape-rendering="crispEdges" fill="rgb(0, 0, 0)"></rect><rect width="1" height="1" x="6" y="2" shape-rendering="crispEdges" fill="rgb(0, 0, 0)"></rect><rect width="1" height="1" x="8" y="2" shape-rendering="crispEdges" fill="rgb(0, 0, 0)"></rect><rect width="1" height="1" x="6" y="3" shape-rendering="crispEdges" fill="rgb(0, 0, 0)"></rect><rect width="1" height="1" x="8" y="3" shape-rendering="crispEdges" fill="rgb(0, 0, 0)"></rect><rect width="1" height="1" x="6" y="4" shape-rendering="crispEdges" fill="rgb(0, 0, 0)"></rect><rect width="1" height="1" x="8" y="4" shape-rendering="crispEdges" fill="rgb(0, 0, 0)"></rect><rect width="1" height="1" x="6" y="5" shape-rendering="crispEdges" fill="rgb(0, 0, 0)"></rect><rect width="1" height="1" x="8" y="5" shape-rendering="crispEdges" fill="rgb(0, 0, 0)"></rect><rect width="1" height="1" x="1" y="6" shape-rendering="crispEdges" fill="rgb(0, 0, 0)"></rect><rect width="1" height="1" x="2" y="6" shape-rendering="crispEdges" fill="rgb(0, 0, 0)"></rect><rect width="1" height="1" x="3" y="6" shape-rendering="crispEdges" fill="rgb(0, 0, 0)"></rect><rect width="1" height="1" x="4" y="6" shape-rendering="crispEdges" fill="rgb(0, 0, 0)"></rect><rect width="1" height="1" x="5" y="6" shape-rendering="crispEdges" fill="rgb(0, 0, 0)"></rect><rect width="1" height="1" x="6" y="6" shape-rendering="crispEdges" fill="rgb(0, 0, 0)"></rect><rect width="1" height="1" x="8" y="6" shape-rendering="crispEdges" fill="rgb(0, 0, 0)"></rect><rect width="1" height="1" x="9" y="6" shape-rendering="crispEdges" fill="rgb(0, 0, 0)"></rect><rect width="1" height="1" x="10" y="6" shape-rendering="crispEdges" fill="rgb(0, 0, 0)"></rect><rect width="1" height="1" x="11" y="6" shape-rendering="crispEdges" fill="rgb(0, 0, 0)"></rect><rect width="1" height="1" x="12" y="6" shape-rendering="crispEdges" fill="rgb(0, 0, 0)"></rect><rect width="1" height="1" x="13" y="6" shape-rendering="crispEdges" fill="rgb(0, 0, 0)"></rect><rect width="1" height="1" x="1" y="7" shape-rendering="crispEdges" fill="rgb(0, 0, 0)"></rect><rect width="1" height="1" x="13" y="7" shape-rendering="crispEdges" fill="rgb(0, 0, 0)"></rect><rect width="1" height="1" x="1" y="8" shape-rendering="crispEdges" fill="rgb(0, 0, 0)"></rect><rect width="1" height="1" x="2" y="8" shape-rendering="crispEdges" fill="rgb(0, 0, 0)"></rect><rect width="1" height="1" x="3" y="8" shape-rendering="crispEdges" fill="rgb(0, 0, 0)"></rect><rect width="1" height="1" x="4" y="8" shape-rendering="crispEdges" fill="rgb(0, 0, 0)"></rect><rect width="1" height="1" x="5" y="8" shape-rendering="crispEdges" fill="rgb(0, 0, 0)"></rect><rect width="1" height="1" x="6" y="8" shape-rendering="crispEdges" fill="rgb(0, 0, 0)"></rect><rect width="1" height="1" x="8" y="8" shape-rendering="crispEdges" fill="rgb(0, 0, 0)"></rect><rect width="1" height="1" x="9" y="8" shape-rendering="crispEdges" fill="rgb(0, 0, 0)"></rect><rect width="1" height="1" x="10" y="8" shape-rendering="crispEdges" fill="rgb(0, 0, 0)"></rect><rect width="1" height="1" x="11" y="8" shape-rendering="crispEdges" fill="rgb(0, 0, 0)"></rect><rect width="1" height="1" x="12" y="8" shape-rendering="crispEdges" fill="rgb(0, 0, 0)"></rect><rect width="1" height="1" x="13" y="8" shape-rendering="crispEdges" fill="rgb(0, 0, 0)"></rect><rect width="1" height="1" x="6" y="9" shape-rendering="crispEdges" fill="rgb(0, 0, 0)"></rect><rect width="1" height="1" x="8" y="9" shape-rendering="crispEdges" fill="rgb(0, 0, 0)"></rect><rect width="1" height="1" x="6" y="10" shape-rendering="crispEdges" fill="rgb(0, 0, 0)"></rect><rect width="1" height="1" x="8" y="10" shape-rendering="crispEdges" fill="rgb(0, 0, 0)"></rect><rect width="1" height="1" x="6" y="11" shape-rendering="crispEdges" fill="rgb(0, 0, 0)"></rect><rect width="1" height="1" x="8" y="11" shape-rendering="crispEdges" fill="rgb(0, 0, 0)"></rect><rect width="1" height="1" x="6" y="12" shape-rendering="crispEdges" fill="rgb(0, 0, 0)"></rect><rect width="1" height="1" x="8" y="12" shape-rendering="crispEdges" fill="rgb(0, 0, 0)"></rect><rect width="1" height="1" x="6" y="13" shape-rendering="crispEdges" fill="rgb(0, 0, 0)"></rect><rect width="1" height="1" x="7" y="13" shape-rendering="crispEdges" fill="rgb(0, 0, 0)"></rect><rect width="1" height="1" x="8" y="13" shape-rendering="crispEdges" fill="rgb(0, 0, 0)"></rect></svg>
