<svg xmlns="http://www.w3.org/2000/svg" version="1.1" viewBox="4 2 7 7" preserveAspectRatio="xMidYMid meet"><rect width="1" height="1" x="7" y="2" shape-rendering="geometricPrecision" fill="rgb(0, 0, 0)"></rect><rect width="1" height="1" x="6" y="3" shape-rendering="geometricPrecision" fill="rgb(0, 0, 0)"></rect><rect width="1" height="1" x="8" y="3" shape-rendering="geometricPrecision" fill="rgb(0, 0, 0)"></rect><rect width="1" height="1" x="5" y="4" shape-rendering="geometricPrecision" fill="rgb(0, 0, 0)"></rect><rect width="1" height="1" x="6" y="4" shape-rendering="geometricPrecision" fill="rgb(0, 0, 0)"></rect><rect width="1" height="1" x="9" y="4" shape-rendering="geometricPrecision" fill="rgb(0, 0, 0)"></rect><rect width="1" height="1" x="4" y="5" shape-rendering="geometricPrecision" fill="rgb(0, 0, 0)"></rect><rect width="1" height="1" x="5" y="5" shape-rendering="geometricPrecision" fill="rgb(0, 0, 0)"></rect><rect width="1" height="1" x="6" y="5" shape-rendering="geometricPrecision" fill="rgb(0, 0, 0)"></rect><rect width="1" height="1" x="10" y="5" shape-rendering="geometricPrecision" fill="rgb(0, 0, 0)"></rect><rect width="1" height="1" x="7" y="6" shape-rendering="geometricPrecision" fill="rgb(0, 0, 0)"></rect><rect width="1" height="1" x="8" y="6" shape-rendering="geometricPrecision" fill="rgb(0, 0, 0)"></rect><rect width="1" height="1" x="9" y="6" shape-rendering="geometricPrecision" fill="rgb(0, 0, 0)"></rect><rect width="1" height="1" x="7" y="7" shape-rendering="geometricPrecision" fill="rgb(0, 0, 0)"></rect><rect width="1" height="1" x="8" y="7" shape-rendering="geometricPrecision" fill="rgb(0, 0, 0)"></rect><rect width="1" height="1" x="7" y="8" shape-rendering="geometricPrecision" fill="rgb(0, 0, 0)"></rect></svg>
