<svg xmlns="http://www.w3.org/2000/svg" version="1.1" viewBox="5 2 11 8" preserveAspectRatio="xMidYMid meet"><rect width="1" height="1" x="6" y="2" fill="hsl(0, 0%, 0%)"></rect><rect width="1" height="1" x="7" y="2" fill="hsl(0, 0%, 0%)"></rect><rect width="1" height="1" x="8" y="2" fill="hsl(0, 0%, 0%)"></rect><rect width="1" height="1" x="9" y="2" fill="hsl(0, 0%, 0%)"></rect><rect width="1" height="1" x="5" y="3" fill="hsl(0, 0%, 0%)"></rect><rect width="1" height="1" x="10" y="3" fill="hsl(0, 0%, 0%)"></rect><rect width="1" height="1" x="11" y="3" fill="hsl(0, 0%, 0%)"></rect><rect width="1" height="1" x="12" y="3" fill="hsl(0, 0%, 0%)"></rect><rect width="1" height="1" x="13" y="3" fill="hsl(0, 0%, 0%)"></rect><rect width="1" height="1" x="14" y="3" fill="hsl(0, 0%, 0%)"></rect><rect width="1" height="1" x="5" y="4" fill="hsl(0, 0%, 0%)"></rect><rect width="1" height="1" x="15" y="4" fill="hsl(0, 0%, 0%)"></rect><rect width="1" height="1" x="5" y="5" fill="hsl(0, 0%, 0%)"></rect><rect width="1" height="1" x="15" y="5" fill="hsl(0, 0%, 0%)"></rect><rect width="1" height="1" x="5" y="6" fill="hsl(0, 0%, 0%)"></rect><rect width="1" height="1" x="15" y="6" fill="hsl(0, 0%, 0%)"></rect><rect width="1" height="1" x="5" y="7" fill="hsl(0, 0%, 0%)"></rect><rect width="1" height="1" x="15" y="7" fill="hsl(0, 0%, 0%)"></rect><rect width="1" height="1" x="5" y="8" fill="hsl(0, 0%, 0%)"></rect><rect width="1" height="1" x="15" y="8" fill="hsl(0, 0%, 0%)"></rect><rect width="1" height="1" x="6" y="9" fill="hsl(0, 0%, 0%)"></rect><rect width="1" height="1" x="7" y="9" fill="hsl(0, 0%, 0%)"></rect><rect width="1" height="1" x="8" y="9" fill="hsl(0, 0%, 0%)"></rect><rect width="1" height="1" x="9" y="9" fill="hsl(0, 0%, 0%)"></rect><rect width="1" height="1" x="10" y="9" fill="hsl(0, 0%, 0%)"></rect><rect width="1" height="1" x="11" y="9" fill="hsl(0, 0%, 0%)"></rect><rect width="1" height="1" x="12" y="9" fill="hsl(0, 0%, 0%)"></rect><rect width="1" height="1" x="13" y="9" fill="hsl(0, 0%, 0%)"></rect><rect width="1" height="1" x="14" y="9" fill="hsl(0, 0%, 0%)"></rect></svg>
