<svg xmlns="http://www.w3.org/2000/svg" version="1.1" viewBox="7 5 19 19" preserveAspectRatio="xMidYMid meet"><rect width="1" height="1" x="9" y="5" fill="rgb(0, 0, 0)"></rect><rect width="1" height="1" x="10" y="5" fill="rgb(0, 0, 0)"></rect><rect width="1" height="1" x="15" y="5" fill="rgb(0, 0, 0)"></rect><rect width="1" height="1" x="16" y="5" fill="rgb(0, 0, 0)"></rect><rect width="1" height="1" x="17" y="5" fill="rgb(0, 0, 0)"></rect><rect width="1" height="1" x="22" y="5" fill="rgb(0, 0, 0)"></rect><rect width="1" height="1" x="23" y="5" fill="rgb(0, 0, 0)"></rect><rect width="1" height="1" x="8" y="6" fill="rgb(0, 0, 0)"></rect><rect width="1" height="1" x="11" y="6" fill="rgb(0, 0, 0)"></rect><rect width="1" height="1" x="14" y="6" fill="rgb(0, 0, 0)"></rect><rect width="1" height="1" x="18" y="6" fill="rgb(0, 0, 0)"></rect><rect width="1" height="1" x="21" y="6" fill="rgb(0, 0, 0)"></rect><rect width="1" height="1" x="24" y="6" fill="rgb(0, 0, 0)"></rect><rect width="1" height="1" x="7" y="7" fill="rgb(0, 0, 0)"></rect><rect width="1" height="1" x="11" y="7" fill="rgb(0, 0, 0)"></rect><rect width="1" height="1" x="14" y="7" fill="rgb(0, 0, 0)"></rect><rect width="1" height="1" x="18" y="7" fill="rgb(0, 0, 0)"></rect><rect width="1" height="1" x="21" y="7" fill="rgb(0, 0, 0)"></rect><rect width="1" height="1" x="25" y="7" fill="rgb(0, 0, 0)"></rect><rect width="1" height="1" x="7" y="8" fill="rgb(0, 0, 0)"></rect><rect width="1" height="1" x="12" y="8" fill="rgb(0, 0, 0)"></rect><rect width="1" height="1" x="13" y="8" fill="rgb(0, 0, 0)"></rect><rect width="1" height="1" x="19" y="8" fill="rgb(0, 0, 0)"></rect><rect width="1" height="1" x="20" y="8" fill="rgb(0, 0, 0)"></rect><rect width="1" height="1" x="25" y="8" fill="rgb(0, 0, 0)"></rect><rect width="1" height="1" x="8" y="9" fill="rgb(0, 0, 0)"></rect><rect width="1" height="1" x="9" y="9" fill="rgb(0, 0, 0)"></rect><rect width="1" height="1" x="23" y="9" fill="rgb(0, 0, 0)"></rect><rect width="1" height="1" x="24" y="9" fill="rgb(0, 0, 0)"></rect><rect width="1" height="1" x="10" y="10" fill="rgb(0, 0, 0)"></rect><rect width="1" height="1" x="15" y="10" fill="rgb(0, 0, 0)"></rect><rect width="1" height="1" x="16" y="10" fill="rgb(0, 0, 0)"></rect><rect width="1" height="1" x="17" y="10" fill="rgb(0, 0, 0)"></rect><rect width="1" height="1" x="22" y="10" fill="rgb(0, 0, 0)"></rect><rect width="1" height="1" x="10" y="11" fill="rgb(0, 0, 0)"></rect><rect width="1" height="1" x="14" y="11" fill="rgb(0, 0, 0)"></rect><rect width="1" height="1" x="18" y="11" fill="rgb(0, 0, 0)"></rect><rect width="1" height="1" x="22" y="11" fill="rgb(0, 0, 0)"></rect><rect width="1" height="1" x="8" y="12" fill="rgb(0, 0, 0)"></rect><rect width="1" height="1" x="9" y="12" fill="rgb(0, 0, 0)"></rect><rect width="1" height="1" x="13" y="12" fill="rgb(0, 0, 0)"></rect><rect width="1" height="1" x="19" y="12" fill="rgb(0, 0, 0)"></rect><rect width="1" height="1" x="23" y="12" fill="rgb(0, 0, 0)"></rect><rect width="1" height="1" x="24" y="12" fill="rgb(0, 0, 0)"></rect><rect width="1" height="1" x="7" y="13" fill="rgb(0, 0, 0)"></rect><rect width="1" height="1" x="12" y="13" fill="rgb(0, 0, 0)"></rect><rect width="1" height="1" x="20" y="13" fill="rgb(0, 0, 0)"></rect><rect width="1" height="1" x="25" y="13" fill="rgb(0, 0, 0)"></rect><rect width="1" height="1" x="7" y="14" fill="rgb(0, 0, 0)"></rect><rect width="1" height="1" x="12" y="14" fill="rgb(0, 0, 0)"></rect><rect width="1" height="1" x="20" y="14" fill="rgb(0, 0, 0)"></rect><rect width="1" height="1" x="25" y="14" fill="rgb(0, 0, 0)"></rect><rect width="1" height="1" x="7" y="15" fill="rgb(0, 0, 0)"></rect><rect width="1" height="1" x="12" y="15" fill="rgb(0, 0, 0)"></rect><rect width="1" height="1" x="20" y="15" fill="rgb(0, 0, 0)"></rect><rect width="1" height="1" x="25" y="15" fill="rgb(0, 0, 0)"></rect><rect width="1" height="1" x="8" y="16" fill="rgb(0, 0, 0)"></rect><rect width="1" height="1" x="9" y="16" fill="rgb(0, 0, 0)"></rect><rect width="1" height="1" x="13" y="16" fill="rgb(0, 0, 0)"></rect><rect width="1" height="1" x="19" y="16" fill="rgb(0, 0, 0)"></rect><rect width="1" height="1" x="23" y="16" fill="rgb(0, 0, 0)"></rect><rect width="1" height="1" x="24" y="16" fill="rgb(0, 0, 0)"></rect><rect width="1" height="1" x="10" y="17" fill="rgb(0, 0, 0)"></rect><rect width="1" height="1" x="14" y="17" fill="rgb(0, 0, 0)"></rect><rect width="1" height="1" x="18" y="17" fill="rgb(0, 0, 0)"></rect><rect width="1" height="1" x="22" y="17" fill="rgb(0, 0, 0)"></rect><rect width="1" height="1" x="10" y="18" fill="rgb(0, 0, 0)"></rect><rect width="1" height="1" x="15" y="18" fill="rgb(0, 0, 0)"></rect><rect width="1" height="1" x="16" y="18" fill="rgb(0, 0, 0)"></rect><rect width="1" height="1" x="17" y="18" fill="rgb(0, 0, 0)"></rect><rect width="1" height="1" x="22" y="18" fill="rgb(0, 0, 0)"></rect><rect width="1" height="1" x="8" y="19" fill="rgb(0, 0, 0)"></rect><rect width="1" height="1" x="9" y="19" fill="rgb(0, 0, 0)"></rect><rect width="1" height="1" x="23" y="19" fill="rgb(0, 0, 0)"></rect><rect width="1" height="1" x="24" y="19" fill="rgb(0, 0, 0)"></rect><rect width="1" height="1" x="7" y="20" fill="rgb(0, 0, 0)"></rect><rect width="1" height="1" x="12" y="20" fill="rgb(0, 0, 0)"></rect><rect width="1" height="1" x="13" y="20" fill="rgb(0, 0, 0)"></rect><rect width="1" height="1" x="19" y="20" fill="rgb(0, 0, 0)"></rect><rect width="1" height="1" x="20" y="20" fill="rgb(0, 0, 0)"></rect><rect width="1" height="1" x="25" y="20" fill="rgb(0, 0, 0)"></rect><rect width="1" height="1" x="7" y="21" fill="rgb(0, 0, 0)"></rect><rect width="1" height="1" x="11" y="21" fill="rgb(0, 0, 0)"></rect><rect width="1" height="1" x="14" y="21" fill="rgb(0, 0, 0)"></rect><rect width="1" height="1" x="18" y="21" fill="rgb(0, 0, 0)"></rect><rect width="1" height="1" x="21" y="21" fill="rgb(0, 0, 0)"></rect><rect width="1" height="1" x="25" y="21" fill="rgb(0, 0, 0)"></rect><rect width="1" height="1" x="8" y="22" fill="rgb(0, 0, 0)"></rect><rect width="1" height="1" x="11" y="22" fill="rgb(0, 0, 0)"></rect><rect width="1" height="1" x="14" y="22" fill="rgb(0, 0, 0)"></rect><rect width="1" height="1" x="18" y="22" fill="rgb(0, 0, 0)"></rect><rect width="1" height="1" x="21" y="22" fill="rgb(0, 0, 0)"></rect><rect width="1" height="1" x="24" y="22" fill="rgb(0, 0, 0)"></rect><rect width="1" height="1" x="9" y="23" fill="rgb(0, 0, 0)"></rect><rect width="1" height="1" x="10" y="23" fill="rgb(0, 0, 0)"></rect><rect width="1" height="1" x="15" y="23" fill="rgb(0, 0, 0)"></rect><rect width="1" height="1" x="16" y="23" fill="rgb(0, 0, 0)"></rect><rect width="1" height="1" x="17" y="23" fill="rgb(0, 0, 0)"></rect><rect width="1" height="1" x="22" y="23" fill="rgb(0, 0, 0)"></rect><rect width="1" height="1" x="23" y="23" fill="rgb(0, 0, 0)"></rect></svg>
