<svg xmlns="http://www.w3.org/2000/svg" version="1.1" viewBox="2 7 11 7" preserveAspectRatio="xMidYMid meet"><rect width="1" height="1" x="7" y="7" shape-rendering="geometricPrecision" fill="rgb(0, 0, 0)"></rect><rect width="1" height="1" x="2" y="9" shape-rendering="geometricPrecision" fill="rgb(0, 0, 0)"></rect><rect width="1" height="1" x="12" y="9" shape-rendering="geometricPrecision" fill="rgb(0, 0, 0)"></rect><rect width="1" height="1" x="6" y="10" shape-rendering="geometricPrecision" fill="rgb(0, 0, 0)"></rect><rect width="1" height="1" x="7" y="10" shape-rendering="geometricPrecision" fill="rgb(0, 0, 0)"></rect><rect width="1" height="1" x="8" y="10" shape-rendering="geometricPrecision" fill="rgb(0, 0, 0)"></rect><rect width="1" height="1" x="5" y="11" shape-rendering="geometricPrecision" fill="rgb(0, 0, 0)"></rect><rect width="1" height="1" x="9" y="11" shape-rendering="geometricPrecision" fill="rgb(0, 0, 0)"></rect><rect width="1" height="1" x="2" y="13" shape-rendering="geometricPrecision" fill="rgb(0, 0, 0)"></rect><rect width="1" height="1" x="3" y="13" shape-rendering="geometricPrecision" fill="rgb(0, 0, 0)"></rect><rect width="1" height="1" x="4" y="13" shape-rendering="geometricPrecision" fill="rgb(0, 0, 0)"></rect><rect width="1" height="1" x="5" y="13" shape-rendering="geometricPrecision" fill="rgb(0, 0, 0)"></rect><rect width="1" height="1" x="6" y="13" shape-rendering="geometricPrecision" fill="rgb(0, 0, 0)"></rect><rect width="1" height="1" x="7" y="13" shape-rendering="geometricPrecision" fill="rgb(0, 0, 0)"></rect><rect width="1" height="1" x="8" y="13" shape-rendering="geometricPrecision" fill="rgb(0, 0, 0)"></rect><rect width="1" height="1" x="9" y="13" shape-rendering="geometricPrecision" fill="rgb(0, 0, 0)"></rect><rect width="1" height="1" x="10" y="13" shape-rendering="geometricPrecision" fill="rgb(0, 0, 0)"></rect><rect width="1" height="1" x="11" y="13" shape-rendering="geometricPrecision" fill="rgb(0, 0, 0)"></rect><rect width="1" height="1" x="12" y="13" shape-rendering="geometricPrecision" fill="rgb(0, 0, 0)"></rect></svg>
