<svg xmlns="http://www.w3.org/2000/svg" version="1.1" viewBox="3 3 13 14" preserveAspectRatio="xMidYMid meet"><rect width="1" height="1" x="10" y="3" fill="hsl(0, 0%, 0%)"></rect><rect width="1" height="1" x="11" y="3" fill="hsl(0, 0%, 0%)"></rect><rect width="1" height="1" x="12" y="3" fill="hsl(0, 0%, 0%)"></rect><rect width="1" height="1" x="13" y="3" fill="hsl(0, 0%, 0%)"></rect><rect width="1" height="1" x="9" y="4" fill="hsl(0, 0%, 0%)"></rect><rect width="1" height="1" x="10" y="4" fill="hsl(0, 0%, 0%)"></rect><rect width="1" height="1" x="11" y="4" fill="hsl(0, 0%, 0%)"></rect><rect width="1" height="1" x="12" y="4" fill="hsl(0, 0%, 0%)"></rect><rect width="1" height="1" x="13" y="4" fill="hsl(0, 0%, 0%)"></rect><rect width="1" height="1" x="14" y="4" fill="hsl(0, 0%, 0%)"></rect><rect width="1" height="1" x="8" y="5" fill="hsl(0, 0%, 0%)"></rect><rect width="1" height="1" x="9" y="5" fill="hsl(0, 0%, 0%)"></rect><rect width="1" height="1" x="13" y="5" fill="hsl(0, 0%, 0%)"></rect><rect width="1" height="1" x="14" y="5" fill="hsl(0, 0%, 0%)"></rect><rect width="1" height="1" x="15" y="5" fill="hsl(0, 0%, 0%)"></rect><rect width="1" height="1" x="8" y="6" fill="hsl(0, 0%, 0%)"></rect><rect width="1" height="1" x="14" y="6" fill="hsl(0, 0%, 0%)"></rect><rect width="1" height="1" x="15" y="6" fill="hsl(0, 0%, 0%)"></rect><rect width="1" height="1" x="14" y="7" fill="hsl(0, 0%, 0%)"></rect><rect width="1" height="1" x="15" y="7" fill="hsl(0, 0%, 0%)"></rect><rect width="1" height="1" x="6" y="8" fill="hsl(0, 0%, 0%)"></rect><rect width="1" height="1" x="7" y="8" fill="hsl(0, 0%, 0%)"></rect><rect width="1" height="1" x="8" y="8" fill="hsl(0, 0%, 0%)"></rect><rect width="1" height="1" x="9" y="8" fill="hsl(0, 0%, 0%)"></rect><rect width="1" height="1" x="14" y="8" fill="hsl(0, 0%, 0%)"></rect><rect width="1" height="1" x="15" y="8" fill="hsl(0, 0%, 0%)"></rect><rect width="1" height="1" x="5" y="9" fill="hsl(0, 0%, 0%)"></rect><rect width="1" height="1" x="6" y="9" fill="hsl(0, 0%, 0%)"></rect><rect width="1" height="1" x="10" y="9" fill="hsl(0, 0%, 0%)"></rect><rect width="1" height="1" x="13" y="9" fill="hsl(0, 0%, 0%)"></rect><rect width="1" height="1" x="14" y="9" fill="hsl(0, 0%, 0%)"></rect><rect width="1" height="1" x="4" y="10" fill="hsl(0, 0%, 0%)"></rect><rect width="1" height="1" x="5" y="10" fill="hsl(0, 0%, 0%)"></rect><rect width="1" height="1" x="8" y="10" fill="hsl(0, 0%, 0%)"></rect><rect width="1" height="1" x="12" y="10" fill="hsl(0, 0%, 0%)"></rect><rect width="1" height="1" x="13" y="10" fill="hsl(0, 0%, 0%)"></rect><rect width="1" height="1" x="3" y="11" fill="hsl(0, 0%, 0%)"></rect><rect width="1" height="1" x="4" y="11" fill="hsl(0, 0%, 0%)"></rect><rect width="1" height="1" x="9" y="11" fill="hsl(0, 0%, 0%)"></rect><rect width="1" height="1" x="10" y="11" fill="hsl(0, 0%, 0%)"></rect><rect width="1" height="1" x="11" y="11" fill="hsl(0, 0%, 0%)"></rect><rect width="1" height="1" x="12" y="11" fill="hsl(0, 0%, 0%)"></rect><rect width="1" height="1" x="3" y="12" fill="hsl(0, 0%, 0%)"></rect><rect width="1" height="1" x="4" y="12" fill="hsl(0, 0%, 0%)"></rect><rect width="1" height="1" x="3" y="13" fill="hsl(0, 0%, 0%)"></rect><rect width="1" height="1" x="4" y="13" fill="hsl(0, 0%, 0%)"></rect><rect width="1" height="1" x="10" y="13" fill="hsl(0, 0%, 0%)"></rect><rect width="1" height="1" x="3" y="14" fill="hsl(0, 0%, 0%)"></rect><rect width="1" height="1" x="4" y="14" fill="hsl(0, 0%, 0%)"></rect><rect width="1" height="1" x="5" y="14" fill="hsl(0, 0%, 0%)"></rect><rect width="1" height="1" x="9" y="14" fill="hsl(0, 0%, 0%)"></rect><rect width="1" height="1" x="10" y="14" fill="hsl(0, 0%, 0%)"></rect><rect width="1" height="1" x="4" y="15" fill="hsl(0, 0%, 0%)"></rect><rect width="1" height="1" x="5" y="15" fill="hsl(0, 0%, 0%)"></rect><rect width="1" height="1" x="6" y="15" fill="hsl(0, 0%, 0%)"></rect><rect width="1" height="1" x="7" y="15" fill="hsl(0, 0%, 0%)"></rect><rect width="1" height="1" x="8" y="15" fill="hsl(0, 0%, 0%)"></rect><rect width="1" height="1" x="9" y="15" fill="hsl(0, 0%, 0%)"></rect><rect width="1" height="1" x="5" y="16" fill="hsl(0, 0%, 0%)"></rect><rect width="1" height="1" x="6" y="16" fill="hsl(0, 0%, 0%)"></rect><rect width="1" height="1" x="7" y="16" fill="hsl(0, 0%, 0%)"></rect><rect width="1" height="1" x="8" y="16" fill="hsl(0, 0%, 0%)"></rect></svg>