<svg xmlns="http://www.w3.org/2000/svg" version="1.1" viewBox="1 0 14 16" preserveAspectRatio="xMidYMid meet"><rect width="1" height="1" x="1" y="0" fill="rgb(0, 0, 0)"></rect><rect width="1" height="1" x="4" y="0" fill="rgb(0, 0, 0)"></rect><rect width="1" height="1" x="7" y="0" fill="rgb(0, 0, 0)"></rect><rect width="1" height="1" x="11" y="0" fill="rgb(0, 0, 0)"></rect><rect width="1" height="1" x="14" y="0" fill="rgb(0, 0, 0)"></rect><rect width="1" height="1" x="1" y="3" fill="rgb(0, 0, 0)"></rect><rect width="1" height="1" x="6" y="3" fill="rgb(0, 0, 0)"></rect><rect width="1" height="1" x="7" y="3" fill="rgb(0, 0, 0)"></rect><rect width="1" height="1" x="8" y="3" fill="rgb(0, 0, 0)"></rect><rect width="1" height="1" x="9" y="3" fill="rgb(0, 0, 0)"></rect><rect width="1" height="1" x="14" y="3" fill="rgb(0, 0, 0)"></rect><rect width="1" height="1" x="5" y="4" fill="rgb(0, 0, 0)"></rect><rect width="1" height="1" x="10" y="4" fill="rgb(0, 0, 0)"></rect><rect width="1" height="1" x="4" y="5" fill="rgb(0, 0, 0)"></rect><rect width="1" height="1" x="7" y="5" fill="rgb(0, 0, 0)"></rect><rect width="1" height="1" x="8" y="5" fill="rgb(0, 0, 0)"></rect><rect width="1" height="1" x="11" y="5" fill="rgb(0, 0, 0)"></rect><rect width="1" height="1" x="4" y="6" fill="rgb(0, 0, 0)"></rect><rect width="1" height="1" x="6" y="6" fill="rgb(0, 0, 0)"></rect><rect width="1" height="1" x="9" y="6" fill="rgb(0, 0, 0)"></rect><rect width="1" height="1" x="10" y="6" fill="rgb(0, 0, 0)"></rect><rect width="1" height="1" x="1" y="7" fill="rgb(0, 0, 0)"></rect><rect width="1" height="1" x="4" y="7" fill="rgb(0, 0, 0)"></rect><rect width="1" height="1" x="6" y="7" fill="rgb(0, 0, 0)"></rect><rect width="1" height="1" x="14" y="7" fill="rgb(0, 0, 0)"></rect><rect width="1" height="1" x="4" y="8" fill="rgb(0, 0, 0)"></rect><rect width="1" height="1" x="6" y="8" fill="rgb(0, 0, 0)"></rect><rect width="1" height="1" x="4" y="9" fill="rgb(0, 0, 0)"></rect><rect width="1" height="1" x="6" y="9" fill="rgb(0, 0, 0)"></rect><rect width="1" height="1" x="9" y="9" fill="rgb(0, 0, 0)"></rect><rect width="1" height="1" x="10" y="9" fill="rgb(0, 0, 0)"></rect><rect width="1" height="1" x="4" y="10" fill="rgb(0, 0, 0)"></rect><rect width="1" height="1" x="7" y="10" fill="rgb(0, 0, 0)"></rect><rect width="1" height="1" x="8" y="10" fill="rgb(0, 0, 0)"></rect><rect width="1" height="1" x="11" y="10" fill="rgb(0, 0, 0)"></rect><rect width="1" height="1" x="1" y="11" fill="rgb(0, 0, 0)"></rect><rect width="1" height="1" x="5" y="11" fill="rgb(0, 0, 0)"></rect><rect width="1" height="1" x="10" y="11" fill="rgb(0, 0, 0)"></rect><rect width="1" height="1" x="14" y="11" fill="rgb(0, 0, 0)"></rect><rect width="1" height="1" x="6" y="12" fill="rgb(0, 0, 0)"></rect><rect width="1" height="1" x="7" y="12" fill="rgb(0, 0, 0)"></rect><rect width="1" height="1" x="8" y="12" fill="rgb(0, 0, 0)"></rect><rect width="1" height="1" x="9" y="12" fill="rgb(0, 0, 0)"></rect><rect width="1" height="1" x="1" y="15" fill="rgb(0, 0, 0)"></rect><rect width="1" height="1" x="4" y="15" fill="rgb(0, 0, 0)"></rect><rect width="1" height="1" x="7" y="15" fill="rgb(0, 0, 0)"></rect><rect width="1" height="1" x="11" y="15" fill="rgb(0, 0, 0)"></rect><rect width="1" height="1" x="14" y="15" fill="rgb(0, 0, 0)"></rect></svg>
