<svg xmlns="http://www.w3.org/2000/svg" version="1.1" viewBox="2 3 11 9" preserveAspectRatio="xMidYMid meet"><rect width="1" height="1" x="3" y="3" fill="rgb(0, 0, 0)"></rect><rect width="1" height="1" x="4" y="3" fill="rgb(0, 0, 0)"></rect><rect width="1" height="1" x="5" y="3" fill="rgb(0, 0, 0)"></rect><rect width="1" height="1" x="6" y="3" fill="rgb(0, 0, 0)"></rect><rect width="1" height="1" x="7" y="3" fill="rgb(0, 0, 0)"></rect><rect width="1" height="1" x="8" y="3" fill="rgb(0, 0, 0)"></rect><rect width="1" height="1" x="9" y="3" fill="rgb(0, 0, 0)"></rect><rect width="1" height="1" x="10" y="3" fill="rgb(0, 0, 0)"></rect><rect width="1" height="1" x="11" y="3" fill="rgb(0, 0, 0)"></rect><rect width="1" height="1" x="2" y="4" fill="rgb(0, 0, 0)"></rect><rect width="1" height="1" x="12" y="4" fill="rgb(0, 0, 0)"></rect><rect width="1" height="1" x="2" y="5" fill="rgb(0, 0, 0)"></rect><rect width="1" height="1" x="4" y="5" fill="rgb(0, 0, 0)"></rect><rect width="1" height="1" x="10" y="5" fill="rgb(0, 0, 0)"></rect><rect width="1" height="1" x="12" y="5" fill="rgb(0, 0, 0)"></rect><rect width="1" height="1" x="2" y="6" fill="rgb(0, 0, 0)"></rect><rect width="1" height="1" x="5" y="6" fill="rgb(0, 0, 0)"></rect><rect width="1" height="1" x="9" y="6" fill="rgb(0, 0, 0)"></rect><rect width="1" height="1" x="12" y="6" fill="rgb(0, 0, 0)"></rect><rect width="1" height="1" x="2" y="7" fill="rgb(0, 0, 0)"></rect><rect width="1" height="1" x="6" y="7" fill="rgb(0, 0, 0)"></rect><rect width="1" height="1" x="8" y="7" fill="rgb(0, 0, 0)"></rect><rect width="1" height="1" x="12" y="7" fill="rgb(0, 0, 0)"></rect><rect width="1" height="1" x="2" y="8" fill="rgb(0, 0, 0)"></rect><rect width="1" height="1" x="7" y="8" fill="rgb(0, 0, 0)"></rect><rect width="1" height="1" x="12" y="8" fill="rgb(0, 0, 0)"></rect><rect width="1" height="1" x="2" y="9" fill="rgb(0, 0, 0)"></rect><rect width="1" height="1" x="12" y="9" fill="rgb(0, 0, 0)"></rect><rect width="1" height="1" x="2" y="10" fill="rgb(0, 0, 0)"></rect><rect width="1" height="1" x="12" y="10" fill="rgb(0, 0, 0)"></rect><rect width="1" height="1" x="3" y="11" fill="rgb(0, 0, 0)"></rect><rect width="1" height="1" x="4" y="11" fill="rgb(0, 0, 0)"></rect><rect width="1" height="1" x="5" y="11" fill="rgb(0, 0, 0)"></rect><rect width="1" height="1" x="6" y="11" fill="rgb(0, 0, 0)"></rect><rect width="1" height="1" x="7" y="11" fill="rgb(0, 0, 0)"></rect><rect width="1" height="1" x="8" y="11" fill="rgb(0, 0, 0)"></rect><rect width="1" height="1" x="9" y="11" fill="rgb(0, 0, 0)"></rect><rect width="1" height="1" x="10" y="11" fill="rgb(0, 0, 0)"></rect><rect width="1" height="1" x="11" y="11" fill="rgb(0, 0, 0)"></rect></svg>
