<svg xmlns="http://www.w3.org/2000/svg" version="1.1" viewBox="5 1 12 9" preserveAspectRatio="xMidYMid meet"><rect width="1" height="1" x="6" y="1" shape-rendering="geometricPrecision" fill="hsl(0, 0%, 0%)"></rect><rect width="1" height="1" x="7" y="1" shape-rendering="geometricPrecision" fill="hsl(0, 0%, 0%)"></rect><rect width="1" height="1" x="8" y="1" shape-rendering="geometricPrecision" fill="hsl(0, 0%, 0%)"></rect><rect width="1" height="1" x="9" y="1" shape-rendering="geometricPrecision" fill="hsl(0, 0%, 0%)"></rect><rect width="1" height="1" x="5" y="2" shape-rendering="geometricPrecision" fill="hsl(0, 0%, 0%)"></rect><rect width="1" height="1" x="10" y="2" shape-rendering="geometricPrecision" fill="hsl(0, 0%, 0%)"></rect><rect width="1" height="1" x="11" y="2" shape-rendering="geometricPrecision" fill="hsl(0, 0%, 0%)"></rect><rect width="1" height="1" x="12" y="2" shape-rendering="geometricPrecision" fill="hsl(0, 0%, 0%)"></rect><rect width="1" height="1" x="13" y="2" shape-rendering="geometricPrecision" fill="hsl(0, 0%, 0%)"></rect><rect width="1" height="1" x="14" y="2" shape-rendering="geometricPrecision" fill="hsl(0, 0%, 0%)"></rect><rect width="1" height="1" x="5" y="3" shape-rendering="geometricPrecision" fill="hsl(0, 0%, 0%)"></rect><rect width="1" height="1" x="15" y="3" shape-rendering="geometricPrecision" fill="hsl(0, 0%, 0%)"></rect><rect width="1" height="1" x="5" y="4" shape-rendering="geometricPrecision" fill="hsl(0, 0%, 0%)"></rect><rect width="1" height="1" x="8" y="4" shape-rendering="geometricPrecision" fill="hsl(0, 0%, 0%)"></rect><rect width="1" height="1" x="9" y="4" shape-rendering="geometricPrecision" fill="hsl(0, 0%, 0%)"></rect><rect width="1" height="1" x="10" y="4" shape-rendering="geometricPrecision" fill="hsl(0, 0%, 0%)"></rect><rect width="1" height="1" x="11" y="4" shape-rendering="geometricPrecision" fill="hsl(0, 0%, 0%)"></rect><rect width="1" height="1" x="12" y="4" shape-rendering="geometricPrecision" fill="hsl(0, 0%, 0%)"></rect><rect width="1" height="1" x="13" y="4" shape-rendering="geometricPrecision" fill="hsl(0, 0%, 0%)"></rect><rect width="1" height="1" x="14" y="4" shape-rendering="geometricPrecision" fill="hsl(0, 0%, 0%)"></rect><rect width="1" height="1" x="15" y="4" shape-rendering="geometricPrecision" fill="hsl(0, 0%, 0%)"></rect><rect width="1" height="1" x="16" y="4" shape-rendering="geometricPrecision" fill="hsl(0, 0%, 0%)"></rect><rect width="1" height="1" x="5" y="5" shape-rendering="geometricPrecision" fill="hsl(0, 0%, 0%)"></rect><rect width="1" height="1" x="7" y="5" shape-rendering="geometricPrecision" fill="hsl(0, 0%, 0%)"></rect><rect width="1" height="1" x="16" y="5" shape-rendering="geometricPrecision" fill="hsl(0, 0%, 0%)"></rect><rect width="1" height="1" x="5" y="6" shape-rendering="geometricPrecision" fill="hsl(0, 0%, 0%)"></rect><rect width="1" height="1" x="7" y="6" shape-rendering="geometricPrecision" fill="hsl(0, 0%, 0%)"></rect><rect width="1" height="1" x="16" y="6" shape-rendering="geometricPrecision" fill="hsl(0, 0%, 0%)"></rect><rect width="1" height="1" x="5" y="7" shape-rendering="geometricPrecision" fill="hsl(0, 0%, 0%)"></rect><rect width="1" height="1" x="7" y="7" shape-rendering="geometricPrecision" fill="hsl(0, 0%, 0%)"></rect><rect width="1" height="1" x="16" y="7" shape-rendering="geometricPrecision" fill="hsl(0, 0%, 0%)"></rect><rect width="1" height="1" x="5" y="8" shape-rendering="geometricPrecision" fill="hsl(0, 0%, 0%)"></rect><rect width="1" height="1" x="6" y="8" shape-rendering="geometricPrecision" fill="hsl(0, 0%, 0%)"></rect><rect width="1" height="1" x="15" y="8" shape-rendering="geometricPrecision" fill="hsl(0, 0%, 0%)"></rect><rect width="1" height="1" x="6" y="9" shape-rendering="geometricPrecision" fill="hsl(0, 0%, 0%)"></rect><rect width="1" height="1" x="7" y="9" shape-rendering="geometricPrecision" fill="hsl(0, 0%, 0%)"></rect><rect width="1" height="1" x="8" y="9" shape-rendering="geometricPrecision" fill="hsl(0, 0%, 0%)"></rect><rect width="1" height="1" x="9" y="9" shape-rendering="geometricPrecision" fill="hsl(0, 0%, 0%)"></rect><rect width="1" height="1" x="10" y="9" shape-rendering="geometricPrecision" fill="hsl(0, 0%, 0%)"></rect><rect width="1" height="1" x="11" y="9" shape-rendering="geometricPrecision" fill="hsl(0, 0%, 0%)"></rect><rect width="1" height="1" x="12" y="9" shape-rendering="geometricPrecision" fill="hsl(0, 0%, 0%)"></rect><rect width="1" height="1" x="13" y="9" shape-rendering="geometricPrecision" fill="hsl(0, 0%, 0%)"></rect><rect width="1" height="1" x="14" y="9" shape-rendering="geometricPrecision" fill="hsl(0, 0%, 0%)"></rect></svg>
