<svg id="pencil" xmlns="http://www.w3.org/2000/svg" version="1.1" viewBox="2 2 13 13" preserveAspectRatio="xMidYMid meet"><rect width="1" height="1" x="11" y="2" fill="rgb(0, 0, 0)"></rect><rect width="1" height="1" x="12" y="2" fill="rgb(0, 0, 0)"></rect><rect width="1" height="1" x="10" y="3" fill="rgb(0, 0, 0)"></rect><rect width="1" height="1" x="13" y="3" fill="rgb(0, 0, 0)"></rect><rect width="1" height="1" x="9" y="4" fill="rgb(0, 0, 0)"></rect><rect width="1" height="1" x="11" y="4" fill="rgb(0, 0, 0)"></rect><rect width="1" height="1" x="14" y="4" fill="rgb(0, 0, 0)"></rect><rect width="1" height="1" x="8" y="5" fill="rgb(0, 0, 0)"></rect><rect width="1" height="1" x="12" y="5" fill="rgb(0, 0, 0)"></rect><rect width="1" height="1" x="14" y="5" fill="rgb(0, 0, 0)"></rect><rect width="1" height="1" x="7" y="6" fill="rgb(0, 0, 0)"></rect><rect width="1" height="1" x="13" y="6" fill="rgb(0, 0, 0)"></rect><rect width="1" height="1" x="6" y="7" fill="rgb(0, 0, 0)"></rect><rect width="1" height="1" x="12" y="7" fill="rgb(0, 0, 0)"></rect><rect width="1" height="1" x="5" y="8" fill="rgb(0, 0, 0)"></rect><rect width="1" height="1" x="11" y="8" fill="rgb(0, 0, 0)"></rect><rect width="1" height="1" x="4" y="9" fill="rgb(0, 0, 0)"></rect><rect width="1" height="1" x="10" y="9" fill="rgb(0, 0, 0)"></rect><rect width="1" height="1" x="3" y="10" fill="rgb(0, 0, 0)"></rect><rect width="1" height="1" x="9" y="10" fill="rgb(0, 0, 0)"></rect><rect width="1" height="1" x="2" y="11" fill="rgb(0, 0, 0)"></rect><rect width="1" height="1" x="4" y="11" fill="rgb(0, 0, 0)"></rect><rect width="1" height="1" x="8" y="11" fill="rgb(0, 0, 0)"></rect><rect width="1" height="1" x="2" y="12" fill="rgb(0, 0, 0)"></rect><rect width="1" height="1" x="5" y="12" fill="rgb(0, 0, 0)"></rect><rect width="1" height="1" x="7" y="12" fill="rgb(0, 0, 0)"></rect><rect width="1" height="1" x="2" y="13" fill="rgb(0, 0, 0)"></rect><rect width="1" height="1" x="3" y="13" fill="rgb(0, 0, 0)"></rect><rect width="1" height="1" x="6" y="13" fill="rgb(0, 0, 0)"></rect><rect width="1" height="1" x="2" y="14" fill="rgb(0, 0, 0)"></rect><rect width="1" height="1" x="3" y="14" fill="rgb(0, 0, 0)"></rect><rect width="1" height="1" x="4" y="14" fill="rgb(0, 0, 0)"></rect><rect width="1" height="1" x="5" y="14" fill="rgb(0, 0, 0)"></rect></svg>
