<svg xmlns="http://www.w3.org/2000/svg" version="1.1" viewBox="1 4 15 12" preserveAspectRatio="xMidYMid meet"><rect width="1" height="1" x="11" y="4" fill="rgb(0, 0, 0)"></rect><rect width="1" height="1" x="12" y="4" fill="rgb(0, 0, 0)"></rect><rect width="1" height="1" x="2" y="5" fill="rgb(0, 0, 0)"></rect><rect width="1" height="1" x="10" y="5" fill="rgb(0, 0, 0)"></rect><rect width="1" height="1" x="13" y="5" fill="rgb(0, 0, 0)"></rect><rect width="1" height="1" x="3" y="6" fill="rgb(0, 0, 0)"></rect><rect width="1" height="1" x="9" y="6" fill="rgb(0, 0, 0)"></rect><rect width="1" height="1" x="14" y="6" fill="rgb(0, 0, 0)"></rect><rect width="1" height="1" x="4" y="7" fill="rgb(0, 0, 0)"></rect><rect width="1" height="1" x="5" y="7" fill="rgb(0, 0, 0)"></rect><rect width="1" height="1" x="9" y="7" fill="rgb(0, 0, 0)"></rect><rect width="1" height="1" x="15" y="7" fill="rgb(0, 0, 0)"></rect><rect width="1" height="1" x="6" y="8" fill="rgb(0, 0, 0)"></rect><rect width="1" height="1" x="7" y="8" fill="rgb(0, 0, 0)"></rect><rect width="1" height="1" x="8" y="8" fill="rgb(0, 0, 0)"></rect><rect width="1" height="1" x="14" y="8" fill="rgb(0, 0, 0)"></rect><rect width="1" height="1" x="2" y="9" fill="rgb(0, 0, 0)"></rect><rect width="1" height="1" x="13" y="9" fill="rgb(0, 0, 0)"></rect><rect width="1" height="1" x="3" y="10" fill="rgb(0, 0, 0)"></rect><rect width="1" height="1" x="4" y="10" fill="rgb(0, 0, 0)"></rect><rect width="1" height="1" x="13" y="10" fill="rgb(0, 0, 0)"></rect><rect width="1" height="1" x="5" y="11" fill="rgb(0, 0, 0)"></rect><rect width="1" height="1" x="12" y="11" fill="rgb(0, 0, 0)"></rect><rect width="1" height="1" x="3" y="12" fill="rgb(0, 0, 0)"></rect><rect width="1" height="1" x="4" y="12" fill="rgb(0, 0, 0)"></rect><rect width="1" height="1" x="12" y="12" fill="rgb(0, 0, 0)"></rect><rect width="1" height="1" x="1" y="13" fill="rgb(0, 0, 0)"></rect><rect width="1" height="1" x="2" y="13" fill="rgb(0, 0, 0)"></rect><rect width="1" height="1" x="11" y="13" fill="rgb(0, 0, 0)"></rect><rect width="1" height="1" x="3" y="14" fill="rgb(0, 0, 0)"></rect><rect width="1" height="1" x="4" y="14" fill="rgb(0, 0, 0)"></rect><rect width="1" height="1" x="5" y="14" fill="rgb(0, 0, 0)"></rect><rect width="1" height="1" x="10" y="14" fill="rgb(0, 0, 0)"></rect><rect width="1" height="1" x="6" y="15" fill="rgb(0, 0, 0)"></rect><rect width="1" height="1" x="7" y="15" fill="rgb(0, 0, 0)"></rect><rect width="1" height="1" x="8" y="15" fill="rgb(0, 0, 0)"></rect><rect width="1" height="1" x="9" y="15" fill="rgb(0, 0, 0)"></rect></svg>
